REM MD5 0159e1eaf3a5f1104ea530c4b6acbe79
FILE "Re-Volt (USA).bin" BINARY
  TRACK 01 MODE2/2352
    INDEX 01 00:00:00
  TRACK 02 AUDIO
    INDEX 00 03:30:11
    INDEX 01 03:32:11
  TRACK 03 AUDIO
    INDEX 00 51:55:14
    INDEX 01 51:57:14
REM LEADOUT 54:57:39
